<svg width="692" height="241" viewBox="0 0 692 241" fill="none" xmlns="http://www.w3.org/2000/svg">
<path d="M172.31 205.97V137.416H69.4777L69.4777 205.97H172.31ZM172.31 103.138L172.31 34.5835H69.4777L69.4777 103.138H172.31ZM0.923042 240.248L0.923047 0.247559L206.587 0.247563L206.587 34.5835L240.923 34.5835V103.138H206.587V137.416H240.923V205.97L206.587 205.97L206.587 240.248H0.923042Z" fill="#333333"/>
<path d="M260.742 240.248L260.742 205.97L329.296 205.97V34.5835L260.742 34.5835V0.247562L466.406 0.247559V34.5835L397.851 34.5835V205.97L466.406 205.97L466.406 240.248H260.742Z" fill="#333333"/>
<path d="M554.896 240.248V34.5835L486.342 34.5835V0.247565L692.006 0.247576V34.5835L623.451 34.5835V240.248H554.896Z" fill="#333333"/>
</svg>
