<svg width="660" height="555" viewBox="0 0 660 555" fill="none" xmlns="http://www.w3.org/2000/svg">
<path d="M251.787 438.726L217.509 379.356L128.454 430.772L162.731 490.142L251.787 438.726ZM200.371 349.671L166.093 290.301L77.0381 341.717L111.315 401.087L200.371 349.671ZM120.5 554.104L0.5 346.258L178.61 243.426L195.778 273.162L225.514 255.994L259.791 315.364L230.056 332.532L247.194 362.217L276.93 345.049L311.207 404.419L281.472 421.587L298.61 451.272L120.5 554.104Z" fill="#333333"/>
<path d="M345.51 424.195L328.371 394.51L387.741 360.233L302.048 211.807L242.678 246.085L225.51 216.349L403.62 113.517L420.788 143.253L361.418 177.53L447.111 325.955L506.481 291.678L523.62 321.363L345.51 424.195Z" fill="#333333"/>
<path d="M600.255 277.118L497.423 99.0073L438.053 133.285L420.885 103.549L598.995 0.716797L616.163 30.4526L556.793 64.7299L659.625 242.84L600.255 277.118Z" fill="#333333"/>
</svg>
