<svg width="1229" height="849" viewBox="0 0 1229 849" fill="none" xmlns="http://www.w3.org/2000/svg">
<path d="M251.787 732.726L217.509 673.356L128.454 724.772L162.731 784.142L251.787 732.726ZM200.371 643.671L166.093 584.301L77.0381 635.717L111.315 695.087L200.371 643.671ZM120.5 848.104L0.5 640.258L178.61 537.426L195.778 567.162L225.514 549.994L259.791 609.364L230.056 626.532L247.194 656.217L276.93 639.049L311.207 698.419L281.472 715.587L298.61 745.272L120.5 848.104Z" fill="#333333"/>
<path d="M345.51 718.195L225.51 510.349L284.88 476.072L387.741 654.233L536.217 568.51L553.356 598.195L345.51 718.195Z" fill="#333333"/>
<path d="M701.806 472.907L616.112 324.482L527.057 375.898L612.751 524.323L701.806 472.907ZM600.204 571.147L583.066 541.462L553.381 558.601L467.687 410.175L497.372 393.037L480.204 363.301L628.63 277.608L645.798 307.343L675.533 290.175L761.227 438.601L731.491 455.769L748.63 485.454L600.204 571.147Z" fill="#333333"/>
<path d="M825.214 441.238L808.075 411.553L778.39 428.691L692.697 280.266L722.382 263.127L705.214 233.392L853.639 147.698L870.807 177.434L900.543 160.266L917.682 189.951L858.261 224.258L841.122 194.573L752.067 245.989L837.76 394.414L926.815 342.998L909.677 313.313L969.098 279.006L986.236 308.691L956.5 325.859L973.639 355.544L825.214 441.238Z" fill="#333333"/>
<path d="M1020.54 328.467L900.539 120.621L959.909 86.3435L1011.35 175.449L1041.04 158.311L1023.9 128.626L1053.59 111.487L1036.45 81.802L1066.13 64.6633L1048.96 34.9275L1108.38 0.62085L1125.55 30.3566L1095.82 47.5246L1112.96 77.2097L1083.27 94.3483L1100.41 124.033L1070.72 141.172L1087.86 170.857L1117.55 153.718L1134.69 183.403L1164.37 166.265L1181.51 195.95L1211.25 178.782L1228.38 208.467L1168.96 242.774L1151.83 213.089L1122.14 230.227L1105 200.542L1075.32 217.681L1058.18 187.996L1028.49 205.134L1079.91 294.19L1020.54 328.467Z" fill="#333333"/>
</svg>
