<svg width="1281" height="241" viewBox="0 0 1281 241" fill="none" xmlns="http://www.w3.org/2000/svg">
<path d="M172.31 206.665V138.11H69.4777L69.4776 206.665H172.31ZM172.31 103.833V35.2781L69.4777 35.2781L69.4777 103.833H172.31ZM0.922991 240.942L0.922974 0.942196L206.587 0.942194V35.2781H240.923V103.833H206.587V138.11H240.923L240.923 206.665L206.587 206.665L206.587 240.942L0.922991 240.942Z" fill="#333333"/>
<path d="M260.742 240.942L260.742 0.942205L329.296 0.942197L329.296 206.665L500.742 206.665V240.942L260.742 240.942Z" fill="#333333"/>
<path d="M691.947 206.665V35.2781L589.115 35.2781V206.665L691.947 206.665ZM554.838 240.942V206.665H520.56V35.2781L554.838 35.2781V0.942177L726.224 0.94218V35.2781L760.56 35.2781V206.665H726.224V240.942L554.838 240.942Z" fill="#333333"/>
<path d="M814.656 240.942V206.665L780.379 206.665V35.2781L814.656 35.2781L814.656 0.942172L986.043 0.942159V35.2781L1020.38 35.2781V69.5555L951.766 69.5555V35.2781L848.934 35.2781L848.934 206.665L951.766 206.665V172.387H1020.38V206.665L986.043 206.665V240.942L814.656 240.942Z" fill="#333333"/>
<path d="M1040.2 240.942V0.942182L1108.75 0.942158V103.833L1143.03 103.833V69.5554L1177.31 69.5555V35.2781L1211.58 35.2781V0.942139L1280.2 0.942165V35.2781L1245.86 35.2781V69.5554L1211.58 69.5554L1211.58 103.833L1177.31 103.833V138.11L1211.58 138.11V172.387H1245.86V206.665L1280.2 206.665V240.942L1211.58 240.942V206.665L1177.31 206.665V172.387H1143.03V138.11H1108.75V240.942H1040.2Z" fill="#333333"/>
</svg>
